<?xml version="1.0" ?><!-- Uploaded to: SVG Repo, www.svgrepo.com, Generator: SVG Repo Mixer Tools -->
<svg width="800px" height="800px" viewBox="0 -0.5 83 83" fill="none" xmlns="http://www.w3.org/2000/svg"><path clip-rule="evenodd" d="M42.6951 0.0817871C20.6666 0.0817871 2.80957 18.2726 2.80957 40.7119C2.80957 63.1512 20.6666 81.342 42.6951 81.342C64.7227 81.342 82.5797 63.1512 82.5797 40.7119C82.5797 18.2726 64.7227 0.0817871 42.6951 0.0817871V0.0817871Z" fill="url(#paint0_radial)" fill-rule="evenodd"/><path d="M29.3714 32.1445C28.7661 32.5529 27.9496 32.3839 27.5487 31.7663C27.1479 31.1498 27.3137 30.318 27.919 29.9096C29.6251 28.754 31.6827 28.0177 33.7937 28.0439C35.6627 28.068 37.5554 28.6826 39.2695 30.1168C39.8303 30.5865 39.9112 31.4304 39.4501 32.0007C38.989 32.572 38.1607 32.6545 37.6008 32.1847C36.3894 31.1699 35.0634 30.7364 33.7631 30.7203C32.2149 30.7002 30.6737 31.2624 29.3714 32.1445V32.1445Z" fill="#2B2A29"/><path d="M2.46995 32.8975C1.86373 33.3068 1.0472 33.1368 0.646336 32.5203C0.245475 31.9037 0.411348 31.0709 1.01757 30.6626C2.72271 29.5079 4.78033 28.7707 6.89225 28.7978C8.7603 28.821 10.654 29.4355 12.368 30.8708C12.9279 31.3405 13.0088 32.1844 12.5477 32.7546C12.0866 33.3249 11.2593 33.4074 10.6984 32.9377C9.48698 31.9239 8.16197 31.4894 6.86164 31.4733C5.31251 31.4541 3.77127 32.0164 2.46995 32.8975V32.8975Z" fill="#2B2A29"/><path clip-rule="evenodd" d="M30.4355 40.907C33.0174 47.4185 30.557 58.4802 21.5514 58.6351C13.1344 58.7799 9.59278 48.9734 10.745 41.9258C10.8655 41.1886 30.009 39.8308 30.4355 40.907Z" fill="#282829" fill-rule="evenodd"/><path clip-rule="evenodd" d="M24.736 57.6853C21.9033 58.7887 15.9684 59.4847 17.6005 54.501C18.1386 52.8585 19.354 51.2985 21.4817 50.4697C23.5364 49.6691 25.4982 49.9095 27.1125 50.5391C33.0089 52.8364 27.6477 56.5508 24.736 57.6853Z" fill="url(#paint1_linear)" fill-rule="evenodd"/><path d="M31.3538 40.5335C32.0035 42.173 32.356 44.079 32.3886 46.0352C32.43 48.6131 31.9146 51.2935 30.7911 53.5797C29.6388 55.9262 27.8508 57.8644 25.3765 58.8822C24.2489 59.3459 22.9812 59.6155 21.5683 59.6396C20.8594 59.6507 20.1851 59.6004 19.5472 59.4918C16.212 58.9265 13.7209 56.8415 12.0553 54.0856C10.4341 51.4102 9.60471 48.084 9.55239 44.9329C9.53461 43.8406 9.60866 42.7714 9.77355 41.7616C9.84266 41.3452 10.1013 41.0565 10.5318 40.8795C11.4481 40.5033 15.513 40.0538 19.7259 39.7772C23.9123 39.5026 28.3168 39.3859 29.9785 39.6675C30.6894 39.7882 31.1692 40.0678 31.3538 40.5335V40.5335ZM30.4178 46.0664C30.3922 44.4994 30.1325 42.9736 29.6556 41.6369L29.6536 41.65C28.1489 41.3965 23.9172 41.5172 19.8494 41.7847C16.2762 42.0191 12.8827 42.356 11.6426 42.6376C11.5498 43.3739 11.5103 44.1333 11.5231 44.9017C11.5695 47.7069 12.3041 50.6619 13.7357 53.0305C15.117 55.3207 17.1618 57.0487 19.8711 57.5083C20.4052 57.5988 20.9621 57.6411 21.5377 57.632C22.6919 57.6119 23.7266 57.3937 24.6429 57.0165C26.6304 56.1988 28.0818 54.6126 29.0287 52.6825C30.0061 50.6931 30.4554 48.3415 30.4178 46.0664V46.0664ZM29.6556 41.6369L29.5223 41.2808C29.4236 41.0324 29.6507 41.6178 29.6536 41.65L29.6556 41.6369V41.6369Z" fill="#FED788"/><defs><radialGradient cx="0" cy="0" gradientTransform="translate(36.2707 26.1138) rotate(180) scale(126.429 128.795)" gradientUnits="userSpaceOnUse" id="paint0_radial" r="1"><stop stop-color="#FFE28E"/><stop offset="1" stop-color="#F9B86C"/></radialGradient><linearGradient gradientUnits="userSpaceOnUse" id="paint1_linear" x1="22.317" x2="28.5311" y1="50.6317" y2="65.2132"><stop stop-color="#EE7B78"/><stop offset="1" stop-color="#65221D"/></linearGradient></defs></svg>